{"asset":{"version":"2.0","generator":"MyCON 1.0 Calibration Model"},"scene":0,"scenes":[{"nodes":[0]}],"nodes":[{"mesh":0,"name":"MYCON Calibration Cube 1m"}],"meshes":[{"name":"Calibration Cube 1m","primitives":[{"attributes":{"POSITION":0},"indices":1,"material":0}]}],"materials":[{"name":"MyCON Blue","pbrMetallicRoughness":{"baseColorFactor":[0.18,0.52,0.95,1.0],"metallicFactor":0.05,"roughnessFactor":0.45}}],"buffers":[{"byteLength":168,"uri":"data:application/octet-stream;base64,"}],"bufferViews":[{"buffer":0,"byteOffset":0,"byteLength":96,"target":34962},{"buffer":0,"byteOffset":96,"byteLength":72,"target":34963}],"accessors":[{"bufferView":0,"componentType":5126,"count":8,"type":"VEC3","min":[-0.5,-0.5,-0.5],"max":[0.5,0.5,0.5]},{"bufferView":1,"componentType":5123,"count":36,"type":"SCALAR","min":[0],"max":[7]}]}